<svg viewBox="0 0 121 130" fill="none" xmlns="http://www.w3.org/2000/svg">
<path d="M58.6952 14.808L47.0418 53.8878H9.44489H6.68097H3.80656L6.0603 55.6719L8.22252 57.3835L8.22255 57.3836L38.7847 81.5787L27.0921 120.79L26.2201 123.714L25.3147 126.751L27.7991 124.784L30.1992 122.884L29.5785 122.1L30.1992 122.884L60.5797 98.8329L90.9601 122.884L93.3598 124.784L95.8436 126.751L94.9389 123.714L94.0675 120.79L94.0674 120.79L82.3746 81.5787L112.937 57.3835L112.316 56.5995L112.937 57.3835L115.099 55.6719L117.353 53.8878H114.479H111.714H74.1177L62.4641 14.808L62.4641 14.808L61.5381 11.7019L60.5798 8.48792L59.6215 11.7018L58.6952 14.808L59.6535 15.0937L58.6952 14.808Z" fill="#CC0001" stroke="white" stroke-width="2"/>
<path d="M29.3474 120.743L60.6295 17.0176" stroke="white"/>
<path d="M89.9543 119.355L60.6273 19.4716" stroke="white"/>
<path d="M29.6342 120.293L60.9163 93.4018" stroke="white"/>
<path d="M41.359 83.8026L58.9552 68.436" stroke="white"/>
<path d="M40.5906 83.7205L58.1869 95.2456" stroke="white"/>
<path d="M31.3842 118.627L58.7561 70.6058" stroke="white"/>
<path d="M62.4084 70.6176L87.8251 116.718" stroke="white"/>
<path d="M60.9592 93.3661L78.5553 79.9203" stroke="white"/>
<path d="M58.78 69.6547L49.0044 54.2881" stroke="white"/>
<path d="M58.6844 48.3213L54.7742 36.7963" stroke="white"/>
<path d="M60.6906 49.5162L66.556 37.9912" stroke="white"/>
<path d="M41.149 82.1506L58.7452 49.4965" stroke="white"/>
<path d="M62.4113 49.4939L78.0524 78.3064" stroke="white"/>
<path d="M60.7099 70.6086L70.4856 53.3211" stroke="white"/>
<path d="M49.4637 52.8931L59.2394 49.0514" stroke="white"/>
<path d="M61.9929 49.0847L69.8134 52.9264" stroke="white"/>
<path d="M78.6132 81.4712L61.0169 69.9461" stroke="white"/>
<path d="M60.6132 96.0417V21.1292" stroke="white" stroke-width="3"/>
<path d="M60.239 93.3988L89.5659 118.37" stroke="white"/>
<path fill-rule="evenodd" clip-rule="evenodd" d="M97.7926 37.672C102.086 33.8789 104.571 29.3841 104.571 24.5652C104.571 10.9982 84.8743 0 60.5797 0C36.2845 0 16.5891 10.9982 16.5891 24.5652C16.5891 29.3853 19.0752 33.881 23.3701 37.6747C22.03 35.3122 21.3031 32.7809 21.3031 30.1483C21.3031 17.198 38.8882 6.69966 60.5805 6.69966C82.2718 6.69966 99.858 17.198 99.858 30.1483C99.858 32.78 99.1316 35.3103 97.7926 37.672Z" fill="#E20C0C"/>
<path fill-rule="evenodd" clip-rule="evenodd" d="M84.714 38.0465C87.3842 35.7632 88.928 33.0575 88.928 30.1571C88.928 21.9886 76.6744 15.3667 61.5568 15.3667C46.4398 15.3667 34.1851 21.9886 34.1851 30.1571C34.1851 33.0602 35.7329 35.768 38.4072 38.0525C37.5723 36.6295 37.1196 35.1044 37.1196 33.5184C37.1196 25.7211 48.0613 19.4002 61.5587 19.4002C75.0553 19.4002 85.9969 25.7211 85.9969 33.5184C85.9969 35.1021 85.5468 36.6251 84.714 38.0465Z" fill="#E20C0C"/>
<path fill-rule="evenodd" clip-rule="evenodd" d="M72.9841 36.4951C74.4158 35.3347 75.2428 33.9598 75.2428 32.4857C75.2428 28.3354 68.6793 24.9709 60.58 24.9709C52.4817 24.9709 45.9167 28.3354 45.9167 32.4857C45.9167 33.9606 46.7456 35.3361 48.1777 36.4966C47.7306 35.7738 47.4883 34.9991 47.4883 34.1935C47.4883 30.2318 53.3498 27.0202 60.5806 27.0202C67.8118 27.0202 73.6739 30.2318 73.6739 34.1935C73.6739 34.9986 73.4305 35.7727 72.9841 36.4951Z" fill="#E20C0C"/>
</svg>